solid OpenSCAD_Model
  facet normal 0 1 -0
    outer loop
      vertex -104.572 20.9315 -1.5
      vertex -106.272 20.9315 1.5
      vertex -104.572 20.9315 1.5
    endloop
  endfacet
  facet normal 0 1 0
    outer loop
      vertex -106.272 20.9315 1.5
      vertex -104.572 20.9315 -1.5
      vertex -106.272 20.9315 -1.5
    endloop
  endfacet
  facet normal -0.866019 0.500011 0
    outer loop
      vertex -104.572 20.9315 -1.5
      vertex -103.722 22.4037 1.5
      vertex -103.722 22.4037 -1.5
    endloop
  endfacet
  facet normal -0.866019 0.500011 0
    outer loop
      vertex -103.722 22.4037 1.5
      vertex -104.572 20.9315 -1.5
      vertex -104.572 20.9315 1.5
    endloop
  endfacet
  facet normal 0 -1 0
    outer loop
      vertex -106.272 23.876 -1.5
      vertex -104.572 23.876 1.5
      vertex -106.272 23.876 1.5
    endloop
  endfacet
  facet normal 0 -1 -0
    outer loop
      vertex -104.572 23.876 1.5
      vertex -106.272 23.876 -1.5
      vertex -104.572 23.876 -1.5
    endloop
  endfacet
  facet normal -0.866034 -0.499986 0
    outer loop
      vertex -103.722 22.4037 -1.5
      vertex -104.572 23.876 1.5
      vertex -104.572 23.876 -1.5
    endloop
  endfacet
  facet normal -0.866034 -0.499986 0
    outer loop
      vertex -104.572 23.876 1.5
      vertex -103.722 22.4037 -1.5
      vertex -103.722 22.4037 1.5
    endloop
  endfacet
  facet normal 0.866034 -0.499986 0
    outer loop
      vertex -107.122 22.4037 1.5
      vertex -106.272 23.876 -1.5
      vertex -106.272 23.876 1.5
    endloop
  endfacet
  facet normal 0.866034 -0.499986 0
    outer loop
      vertex -106.272 23.876 -1.5
      vertex -107.122 22.4037 1.5
      vertex -107.122 22.4037 -1.5
    endloop
  endfacet
  facet normal 0.866019 0.500011 0
    outer loop
      vertex -106.272 20.9315 1.5
      vertex -107.122 22.4037 -1.5
      vertex -107.122 22.4037 1.5
    endloop
  endfacet
  facet normal 0.866019 0.500011 0
    outer loop
      vertex -107.122 22.4037 -1.5
      vertex -106.272 20.9315 1.5
      vertex -106.272 20.9315 -1.5
    endloop
  endfacet
  facet normal 0 1 -0
    outer loop
      vertex -103.874 -29.3719 -1.5
      vertex -105.574 -29.3719 1.5
      vertex -103.874 -29.3719 1.5
    endloop
  endfacet
  facet normal 0 1 0
    outer loop
      vertex -105.574 -29.3719 1.5
      vertex -103.874 -29.3719 -1.5
      vertex -105.574 -29.3719 -1.5
    endloop
  endfacet
  facet normal -0.866034 0.499986 0
    outer loop
      vertex -103.874 -29.3719 -1.5
      vertex -103.024 -27.8996 1.5
      vertex -103.024 -27.8996 -1.5
    endloop
  endfacet
  facet normal -0.866034 0.499986 0
    outer loop
      vertex -103.024 -27.8996 1.5
      vertex -103.874 -29.3719 -1.5
      vertex -103.874 -29.3719 1.5
    endloop
  endfacet
  facet normal 0 -1 0
    outer loop
      vertex -105.574 -26.4274 -1.5
      vertex -103.874 -26.4274 1.5
      vertex -105.574 -26.4274 1.5
    endloop
  endfacet
  facet normal 0 -1 -0
    outer loop
      vertex -103.874 -26.4274 1.5
      vertex -105.574 -26.4274 -1.5
      vertex -103.874 -26.4274 -1.5
    endloop
  endfacet
  facet normal -0.866019 -0.500011 0
    outer loop
      vertex -103.024 -27.8996 -1.5
      vertex -103.874 -26.4274 1.5
      vertex -103.874 -26.4274 -1.5
    endloop
  endfacet
  facet normal -0.866019 -0.500011 0
    outer loop
      vertex -103.874 -26.4274 1.5
      vertex -103.024 -27.8996 -1.5
      vertex -103.024 -27.8996 1.5
    endloop
  endfacet
  facet normal 0.866019 -0.500011 0
    outer loop
      vertex -106.424 -27.8996 1.5
      vertex -105.574 -26.4274 -1.5
      vertex -105.574 -26.4274 1.5
    endloop
  endfacet
  facet normal 0.866019 -0.500011 0
    outer loop
      vertex -105.574 -26.4274 -1.5
      vertex -106.424 -27.8996 1.5
      vertex -106.424 -27.8996 -1.5
    endloop
  endfacet
  facet normal 0.866034 0.499986 0
    outer loop
      vertex -105.574 -29.3719 1.5
      vertex -106.424 -27.8996 -1.5
      vertex -106.424 -27.8996 1.5
    endloop
  endfacet
  facet normal 0.866034 0.499986 0
    outer loop
      vertex -106.424 -27.8996 -1.5
      vertex -105.574 -29.3719 1.5
      vertex -105.574 -29.3719 -1.5
    endloop
  endfacet
  facet normal 0 1 -0
    outer loop
      vertex -47.9912 -65.3533 -1.5
      vertex -49.6912 -65.3533 1.5
      vertex -47.9912 -65.3533 1.5
    endloop
  endfacet
  facet normal 0 1 0
    outer loop
      vertex -49.6912 -65.3533 1.5
      vertex -47.9912 -65.3533 -1.5
      vertex -49.6912 -65.3533 -1.5
    endloop
  endfacet
  facet normal -0.866019 0.500011 0
    outer loop
      vertex -47.9912 -65.3533 -1.5
      vertex -47.1412 -63.8811 1.5
      vertex -47.1412 -63.8811 -1.5
    endloop
  endfacet
  facet normal -0.866019 0.500011 0
    outer loop
      vertex -47.1412 -63.8811 1.5
      vertex -47.9912 -65.3533 -1.5
      vertex -47.9912 -65.3533 1.5
    endloop
  endfacet
  facet normal 0 -1 0
    outer loop
      vertex -49.6912 -62.4088 -1.5
      vertex -47.9912 -62.4088 1.5
      vertex -49.6912 -62.4088 1.5
    endloop
  endfacet
  facet normal 0 -1 -0
    outer loop
      vertex -47.9912 -62.4088 1.5
      vertex -49.6912 -62.4088 -1.5
      vertex -47.9912 -62.4088 -1.5
    endloop
  endfacet
  facet normal -0.866034 -0.499986 0
    outer loop
      vertex -47.1412 -63.8811 -1.5
      vertex -47.9912 -62.4088 1.5
      vertex -47.9912 -62.4088 -1.5
    endloop
  endfacet
  facet normal -0.866034 -0.499986 0
    outer loop
      vertex -47.9912 -62.4088 1.5
      vertex -47.1412 -63.8811 -1.5
      vertex -47.1412 -63.8811 1.5
    endloop
  endfacet
  facet normal 0.866034 -0.499986 0
    outer loop
      vertex -50.5412 -63.8811 1.5
      vertex -49.6912 -62.4088 -1.5
      vertex -49.6912 -62.4088 1.5
    endloop
  endfacet
  facet normal 0.866034 -0.499986 0
    outer loop
      vertex -49.6912 -62.4088 -1.5
      vertex -50.5412 -63.8811 1.5
      vertex -50.5412 -63.8811 -1.5
    endloop
  endfacet
  facet normal 0.866019 0.500011 0
    outer loop
      vertex -49.6912 -65.3533 1.5
      vertex -50.5412 -63.8811 -1.5
      vertex -50.5412 -63.8811 1.5
    endloop
  endfacet
  facet normal 0.866019 0.500011 0
    outer loop
      vertex -50.5412 -63.8811 -1.5
      vertex -49.6912 -65.3533 1.5
      vertex -49.6912 -65.3533 -1.5
    endloop
  endfacet
  facet normal 0 1 -0
    outer loop
      vertex -23.1529 38.7144 -1.5
      vertex -24.8529 38.7144 1.5
      vertex -23.1529 38.7144 1.5
    endloop
  endfacet
  facet normal 0 1 0
    outer loop
      vertex -24.8529 38.7144 1.5
      vertex -23.1529 38.7144 -1.5
      vertex -24.8529 38.7144 -1.5
    endloop
  endfacet
  facet normal -0.866034 0.499986 0
    outer loop
      vertex -23.1529 38.7144 -1.5
      vertex -22.3029 40.1867 1.5
      vertex -22.3029 40.1867 -1.5
    endloop
  endfacet
  facet normal -0.866034 0.499986 0
    outer loop
      vertex -22.3029 40.1867 1.5
      vertex -23.1529 38.7144 -1.5
      vertex -23.1529 38.7144 1.5
    endloop
  endfacet
  facet normal 0 -1 0
    outer loop
      vertex -24.8529 41.6589 -1.5
      vertex -23.1529 41.6589 1.5
      vertex -24.8529 41.6589 1.5
    endloop
  endfacet
  facet normal 0 -1 -0
    outer loop
      vertex -23.1529 41.6589 1.5
      vertex -24.8529 41.6589 -1.5
      vertex -23.1529 41.6589 -1.5
    endloop
  endfacet
  facet normal -0.866019 -0.500011 0
    outer loop
      vertex -22.3029 40.1867 -1.5
      vertex -23.1529 41.6589 1.5
      vertex -23.1529 41.6589 -1.5
    endloop
  endfacet
  facet normal -0.866019 -0.500011 0
    outer loop
      vertex -23.1529 41.6589 1.5
      vertex -22.3029 40.1867 -1.5
      vertex -22.3029 40.1867 1.5
    endloop
  endfacet
  facet normal 0.866019 -0.500011 0
    outer loop
      vertex -25.7029 40.1867 1.5
      vertex -24.8529 41.6589 -1.5
      vertex -24.8529 41.6589 1.5
    endloop
  endfacet
  facet normal 0.866019 -0.500011 0
    outer loop
      vertex -24.8529 41.6589 -1.5
      vertex -25.7029 40.1867 1.5
      vertex -25.7029 40.1867 -1.5
    endloop
  endfacet
  facet normal 0.866034 0.499986 0
    outer loop
      vertex -24.8529 38.7144 1.5
      vertex -25.7029 40.1867 -1.5
      vertex -25.7029 40.1867 1.5
    endloop
  endfacet
  facet normal 0.866034 0.499986 0
    outer loop
      vertex -25.7029 40.1867 -1.5
      vertex -24.8529 38.7144 1.5
      vertex -24.8529 38.7144 -1.5
    endloop
  endfacet
  facet normal 0 1 -0
    outer loop
      vertex 14.1711 -14.218 -1.5
      vertex 12.4711 -14.218 1.5
      vertex 14.1711 -14.218 1.5
    endloop
  endfacet
  facet normal 0 1 0
    outer loop
      vertex 12.4711 -14.218 1.5
      vertex 14.1711 -14.218 -1.5
      vertex 12.4711 -14.218 -1.5
    endloop
  endfacet
  facet normal -0.866034 0.499986 0
    outer loop
      vertex 14.1711 -14.218 -1.5
      vertex 15.0211 -12.7457 1.5
      vertex 15.0211 -12.7457 -1.5
    endloop
  endfacet
  facet normal -0.866034 0.499986 0
    outer loop
      vertex 15.0211 -12.7457 1.5
      vertex 14.1711 -14.218 -1.5
      vertex 14.1711 -14.218 1.5
    endloop
  endfacet
  facet normal 0 -1 0
    outer loop
      vertex 12.4711 -11.2735 -1.5
      vertex 14.1711 -11.2735 1.5
      vertex 12.4711 -11.2735 1.5
    endloop
  endfacet
  facet normal 0 -1 -0
    outer loop
      vertex 14.1711 -11.2735 1.5
      vertex 12.4711 -11.2735 -1.5
      vertex 14.1711 -11.2735 -1.5
    endloop
  endfacet
  facet normal -0.866019 -0.500011 0
    outer loop
      vertex 15.0211 -12.7457 -1.5
      vertex 14.1711 -11.2735 1.5
      vertex 14.1711 -11.2735 -1.5
    endloop
  endfacet
  facet normal -0.866019 -0.500011 0
    outer loop
      vertex 14.1711 -11.2735 1.5
      vertex 15.0211 -12.7457 -1.5
      vertex 15.0211 -12.7457 1.5
    endloop
  endfacet
  facet normal 0.866019 -0.500011 0
    outer loop
      vertex 11.6211 -12.7457 1.5
      vertex 12.4711 -11.2735 -1.5
      vertex 12.4711 -11.2735 1.5
    endloop
  endfacet
  facet normal 0.866019 -0.500011 0
    outer loop
      vertex 12.4711 -11.2735 -1.5
      vertex 11.6211 -12.7457 1.5
      vertex 11.6211 -12.7457 -1.5
    endloop
  endfacet
  facet normal 0.866034 0.499986 0
    outer loop
      vertex 12.4711 -14.218 1.5
      vertex 11.6211 -12.7457 -1.5
      vertex 11.6211 -12.7457 1.5
    endloop
  endfacet
  facet normal 0.866034 0.499986 0
    outer loop
      vertex 11.6211 -12.7457 -1.5
      vertex 12.4711 -14.218 1.5
      vertex 12.4711 -14.218 -1.5
    endloop
  endfacet
  facet normal 0 0 -1
    outer loop
      vertex 15.8958 -47.2022 -1.5
      vertex 15.8042 -46.8529 -1.5
      vertex 15.8906 -47.1092 -1.5
    endloop
  endfacet
  facet normal 0 -0 -1
    outer loop
      vertex 15.8042 -46.8529 -1.5
      vertex 15.8958 -47.2022 -1.5
      vertex 14.5481 -48.8281 -1.5
    endloop
  endfacet
  facet normal 0 0 -1
    outer loop
      vertex 15.8042 -46.8529 -1.5
      vertex 14.4861 -28.734 -1.5
      vertex 16.019 -46.5835 -1.5
    endloop
  endfacet
  facet normal 0 0 -1
    outer loop
      vertex -13.1233 -43.2773 -1.5
      vertex 15.8042 -46.8529 -1.5
      vertex 14.5481 -48.8281 -1.5
    endloop
  endfacet
  facet normal 0 0 -1
    outer loop
      vertex 15.8042 -46.8529 -1.5
      vertex -13.1233 -43.2773 -1.5
      vertex 14.4861 -28.734 -1.5
    endloop
  endfacet
  facet normal -0 0 -1
    outer loop
      vertex 14.4861 -28.734 -1.5
      vertex -13.1233 -43.2773 -1.5
      vertex 14.328 -25 -1.5
    endloop
  endfacet
  facet normal 0 0 -1
    outer loop
      vertex 14.328 -25 -1.5
      vertex 12.4711 -14.218 -1.5
      vertex 14.1711 -14.218 -1.5
    endloop
  endfacet
  facet normal 0 -0 -1
    outer loop
      vertex 11.6211 -12.7457 -1.5
      vertex 14.328 -25 -1.5
      vertex -13.1233 -43.2773 -1.5
    endloop
  endfacet
  facet normal 0 0 -1
    outer loop
      vertex 7.14328 -56.3398 -1.5
      vertex 14.5481 -48.8281 -1.5
      vertex 7.45935 -56.2964 -1.5
    endloop
  endfacet
  facet normal 0 0 -1
    outer loop
      vertex -74.7626 43.3622 -1.5
      vertex -107.071 8.32773 -1.5
      vertex -103.722 22.4037 -1.5
    endloop
  endfacet
  facet normal 0 -0 -1
    outer loop
      vertex -106.672 14.0367 -1.5
      vertex -103.722 22.4037 -1.5
      vertex -107.071 8.32773 -1.5
    endloop
  endfacet
  facet normal 0 0 -1
    outer loop
      vertex -103.722 22.4037 -1.5
      vertex -106.672 14.0367 -1.5
      vertex -104.572 20.9315 -1.5
    endloop
  endfacet
  facet normal 0 0 -1
    outer loop
      vertex -104.572 20.9315 -1.5
      vertex -106.672 14.0367 -1.5
      vertex -106.077 18.2074 -1.5
    endloop
  endfacet
  facet normal 0 0 -1
    outer loop
      vertex -107.071 -9.26959 -1.5
      vertex -29.0235 -43.3621 -1.5
      vertex -106.672 -15.0009 -1.5
    endloop
  endfacet
  facet normal 0 0 -1
    outer loop
      vertex -29.0235 -43.3621 -1.5
      vertex -107.071 -9.26959 -1.5
      vertex -59.2591 43.5 -1.5
    endloop
  endfacet
  facet normal 0 0 -1
    outer loop
      vertex -106.672 -15.0009 -1.5
      vertex -103.874 -26.4274 -1.5
      vertex -105.441 -23.7017 -1.5
    endloop
  endfacet
  facet normal 0 0 -1
    outer loop
      vertex -105.574 -26.4274 -1.5
      vertex -105.441 -23.7017 -1.5
      vertex -103.874 -26.4274 -1.5
    endloop
  endfacet
  facet normal 0 0 -1
    outer loop
      vertex -105.574 -26.4274 -1.5
      vertex -105.67 -23.7533 -1.5
      vertex -105.441 -23.7017 -1.5
    endloop
  endfacet
  facet normal 0 0 -1
    outer loop
      vertex -108.556 -26.0543 -1.5
      vertex -105.574 -26.4274 -1.5
      vertex -106.424 -27.8996 -1.5
    endloop
  endfacet
  facet normal -0 0 -1
    outer loop
      vertex -105.574 -29.3719 -1.5
      vertex -108.556 -29.7449 -1.5
      vertex -106.424 -27.8996 -1.5
    endloop
  endfacet
  facet normal 0 0 -1
    outer loop
      vertex -105.574 -26.4274 -1.5
      vertex -107.376 -24.5745 -1.5
      vertex -105.67 -23.7533 -1.5
    endloop
  endfacet
  facet normal 0 0 -1
    outer loop
      vertex -108.977 -27.8996 -1.5
      vertex -106.424 -27.8996 -1.5
      vertex -108.556 -29.7449 -1.5
    endloop
  endfacet
  facet normal 0 0 -1
    outer loop
      vertex -105.574 -26.4274 -1.5
      vertex -108.556 -26.0543 -1.5
      vertex -107.376 -24.5745 -1.5
    endloop
  endfacet
  facet normal 0 0 -1
    outer loop
      vertex -106.424 -27.8996 -1.5
      vertex -108.977 -27.8996 -1.5
      vertex -108.556 -26.0543 -1.5
    endloop
  endfacet
  facet normal 0 0 -1
    outer loop
      vertex -104.228 -32.046 -1.5
      vertex -103.024 -27.8996 -1.5
      vertex -100.324 -38.9511 -1.5
    endloop
  endfacet
  facet normal 0 0 -1
    outer loop
      vertex -103.024 -27.8996 -1.5
      vertex -104.228 -32.046 -1.5
      vertex -103.874 -29.3719 -1.5
    endloop
  endfacet
  facet normal 0 0 -1
    outer loop
      vertex -104.228 -32.046 -1.5
      vertex -105.574 -29.3719 -1.5
      vertex -103.874 -29.3719 -1.5
    endloop
  endfacet
  facet normal 0 0 -1
    outer loop
      vertex -105.67 -32.046 -1.5
      vertex -105.574 -29.3719 -1.5
      vertex -104.228 -32.046 -1.5
    endloop
  endfacet
  facet normal 0 0 -1
    outer loop
      vertex -107.376 -31.2248 -1.5
      vertex -105.574 -29.3719 -1.5
      vertex -105.67 -32.046 -1.5
    endloop
  endfacet
  facet normal 0 0 -1
    outer loop
      vertex -108.556 -29.7449 -1.5
      vertex -105.574 -29.3719 -1.5
      vertex -107.376 -31.2248 -1.5
    endloop
  endfacet
  facet normal 0 0 -1
    outer loop
      vertex -66.2943 -83.0909 -1.5
      vertex -100.936 -71.8214 -1.5
      vertex -50.5412 -63.8811 -1.5
    endloop
  endfacet
  facet normal -0 0 -1
    outer loop
      vertex -50.5412 -63.8811 -1.5
      vertex -100.936 -71.8214 -1.5
      vertex -100.324 -38.9511 -1.5
    endloop
  endfacet
  facet normal 0 0 -1
    outer loop
      vertex -100.936 -71.8214 -1.5
      vertex -107.284 -43.8242 -1.5
      vertex -100.324 -38.9511 -1.5
    endloop
  endfacet
  facet normal 0 0 -1
    outer loop
      vertex -111.466 -57.8792 -1.5
      vertex -107.284 -43.8242 -1.5
      vertex -100.936 -71.8214 -1.5
    endloop
  endfacet
  facet normal 0 -0 -1
    outer loop
      vertex -110.425 -48.3643 -1.5
      vertex -107.284 -43.8242 -1.5
      vertex -111.466 -57.8792 -1.5
    endloop
  endfacet
  facet normal 0 -0 -1
    outer loop
      vertex -108.037 -44.4572 -1.5
      vertex -107.284 -43.8242 -1.5
      vertex -110.425 -48.3643 -1.5
    endloop
  endfacet
  facet normal 0 0 -1
    outer loop
      vertex -108.037 -44.4572 -1.5
      vertex -110.425 -48.3643 -1.5
      vertex -110.331 -46.8512 -1.5
    endloop
  endfacet
  facet normal 0 0 -1
    outer loop
      vertex -107.284 -43.8242 -1.5
      vertex -108.037 -44.4572 -1.5
      vertex -107.645 -44.0881 -1.5
    endloop
  endfacet
  facet normal 0 0 -1
    outer loop
      vertex -59.2591 43.5 -1.5
      vertex -107.071 8.32773 -1.5
      vertex -74.7626 43.3622 -1.5
    endloop
  endfacet
  facet normal 0 0 -1
    outer loop
      vertex -106.077 18.2074 -1.5
      vertex -106.272 20.9315 -1.5
      vertex -104.572 20.9315 -1.5
    endloop
  endfacet
  facet normal 0 0 -1
    outer loop
      vertex -106.368 18.2573 -1.5
      vertex -106.272 20.9315 -1.5
      vertex -106.077 18.2074 -1.5
    endloop
  endfacet
  facet normal 0 0 -1
    outer loop
      vertex -108.074 19.0786 -1.5
      vertex -106.272 20.9315 -1.5
      vertex -106.368 18.2573 -1.5
    endloop
  endfacet
  facet normal 0 0 -1
    outer loop
      vertex -109.254 20.5584 -1.5
      vertex -106.272 20.9315 -1.5
      vertex -108.074 19.0786 -1.5
    endloop
  endfacet
  facet normal 0 0 -1
    outer loop
      vertex -23.1529 41.6589 -1.5
      vertex -21.5731 43.6187 -1.5
      vertex -22.3029 40.1867 -1.5
    endloop
  endfacet
  facet normal -0 0 -1
    outer loop
      vertex -21.5731 43.6187 -1.5
      vertex -23.1529 41.6589 -1.5
      vertex -23.0565 44.3331 -1.5
    endloop
  endfacet
  facet normal 0 0 -1
    outer loop
      vertex -24.8529 41.6589 -1.5
      vertex -23.0565 44.3331 -1.5
      vertex -23.1529 41.6589 -1.5
    endloop
  endfacet
  facet normal 0 0 -1
    outer loop
      vertex -24.8529 41.6589 -1.5
      vertex -24.9492 44.3331 -1.5
      vertex -23.0565 44.3331 -1.5
    endloop
  endfacet
  facet normal 0 0 -1
    outer loop
      vertex -26.4636 43.6038 -1.5
      vertex -24.8529 41.6589 -1.5
      vertex -25.7029 40.1867 -1.5
    endloop
  endfacet
  facet normal 0 0 -1
    outer loop
      vertex -24.8529 41.6589 -1.5
      vertex -26.4636 43.6038 -1.5
      vertex -24.9492 44.3331 -1.5
    endloop
  endfacet
  facet normal 0 0 -1
    outer loop
      vertex -49.6912 -62.4088 -1.5
      vertex -29.0235 -43.3621 -1.5
      vertex -47.9912 -62.4088 -1.5
    endloop
  endfacet
  facet normal 0 0 -1
    outer loop
      vertex -100.324 -38.9511 -1.5
      vertex -29.0235 -43.3621 -1.5
      vertex -49.6912 -62.4088 -1.5
    endloop
  endfacet
  facet normal 0 0 -1
    outer loop
      vertex -100.324 -38.9511 -1.5
      vertex -49.6912 -62.4088 -1.5
      vertex -50.5412 -63.8811 -1.5
    endloop
  endfacet
  facet normal 0 0 -1
    outer loop
      vertex -29.0235 -43.3621 -1.5
      vertex -59.2591 43.5 -1.5
      vertex -39.1765 46.4454 -1.5
    endloop
  endfacet
  facet normal 0 0 -1
    outer loop
      vertex -66.2943 -83.0909 -1.5
      vertex -50.5412 -63.8811 -1.5
      vertex -51.6005 -76.4534 -1.5
    endloop
  endfacet
  facet normal 0 0 -1
    outer loop
      vertex -39.1765 46.4454 -1.5
      vertex -59.2591 43.5 -1.5
      vertex -54.7551 46.3355 -1.5
    endloop
  endfacet
  facet normal 0 0 -1
    outer loop
      vertex -66.2943 -83.0909 -1.5
      vertex -51.6005 -76.4534 -1.5
      vertex -66.2001 -83.2612 -1.5
    endloop
  endfacet
  facet normal 0 0 -1
    outer loop
      vertex -100.936 -71.8214 -1.5
      vertex -66.2943 -83.0909 -1.5
      vertex -100.445 -74.4405 -1.5
    endloop
  endfacet
  facet normal 0 0 -1
    outer loop
      vertex -29.0235 -43.3621 -1.5
      vertex -100.324 -38.9511 -1.5
      vertex -103.024 -27.8996 -1.5
    endloop
  endfacet
  facet normal 0 0 -1
    outer loop
      vertex -77.7552 -89.5099 -1.5
      vertex -66.2943 -83.0909 -1.5
      vertex -76.9074 -90.5222 -1.5
    endloop
  endfacet
  facet normal 0 0 -1
    outer loop
      vertex -77.7552 -89.5099 -1.5
      vertex -76.9074 -90.5222 -1.5
      vertex -76.9933 -90.4724 -1.5
    endloop
  endfacet
  facet normal 0 0 -1
    outer loop
      vertex -100.445 -74.4405 -1.5
      vertex -77.7552 -89.5099 -1.5
      vertex -99.834 -76.7413 -1.5
    endloop
  endfacet
  facet normal 0 0 -1
    outer loop
      vertex -106.672 -15.0009 -1.5
      vertex -29.0235 -43.3621 -1.5
      vertex -103.024 -27.8996 -1.5
    endloop
  endfacet
  facet normal 0 0 -1
    outer loop
      vertex -89.2401 -90.7589 -1.5
      vertex -77.7552 -89.5099 -1.5
      vertex -82.1602 -91.78 -1.5
    endloop
  endfacet
  facet normal -0 0 -1
    outer loop
      vertex -77.7552 -89.5099 -1.5
      vertex -89.2401 -90.7589 -1.5
      vertex -99.834 -76.7413 -1.5
    endloop
  endfacet
  facet normal 0 0 -1
    outer loop
      vertex -106.672 -15.0009 -1.5
      vertex -103.024 -27.8996 -1.5
      vertex -103.874 -26.4274 -1.5
    endloop
  endfacet
  facet normal 0 0 -1
    outer loop
      vertex -107.071 8.32773 -1.5
      vertex -59.2591 43.5 -1.5
      vertex -107.071 -9.26959 -1.5
    endloop
  endfacet
  facet normal 0 0 -1
    outer loop
      vertex -77.7552 -89.5099 -1.5
      vertex -100.445 -74.4405 -1.5
      vertex -66.2943 -83.0909 -1.5
    endloop
  endfacet
  facet normal 0 0 -1
    outer loop
      vertex -74.7626 43.3622 -1.5
      vertex -103.722 22.4037 -1.5
      vertex -78.9855 43.3205 -1.5
    endloop
  endfacet
  facet normal 0 0 -1
    outer loop
      vertex -78.9855 43.3205 -1.5
      vertex -96.2719 38.8708 -1.5
      vertex -93.8263 43.1586 -1.5
    endloop
  endfacet
  facet normal 0 0 -1
    outer loop
      vertex -78.9855 43.3205 -1.5
      vertex -103.722 22.4037 -1.5
      vertex -96.2719 38.8708 -1.5
    endloop
  endfacet
  facet normal 0 0 -1
    outer loop
      vertex -103.722 22.4037 -1.5
      vertex -104.272 30.8708 -1.5
      vertex -96.2719 38.8708 -1.5
    endloop
  endfacet
  facet normal 0 0 -1
    outer loop
      vertex -104.888 26.5501 -1.5
      vertex -103.722 22.4037 -1.5
      vertex -104.572 23.876 -1.5
    endloop
  endfacet
  facet normal 0 0 -1
    outer loop
      vertex -103.722 22.4037 -1.5
      vertex -104.888 26.5501 -1.5
      vertex -104.272 30.8708 -1.5
    endloop
  endfacet
  facet normal 0 0 -1
    outer loop
      vertex -106.272 23.876 -1.5
      vertex -104.888 26.5501 -1.5
      vertex -104.572 23.876 -1.5
    endloop
  endfacet
  facet normal 0 0 -1
    outer loop
      vertex -106.272 23.876 -1.5
      vertex -106.368 26.5501 -1.5
      vertex -104.888 26.5501 -1.5
    endloop
  endfacet
  facet normal 0 0 -1
    outer loop
      vertex -109.254 24.249 -1.5
      vertex -106.272 23.876 -1.5
      vertex -107.122 22.4037 -1.5
    endloop
  endfacet
  facet normal -0 0 -1
    outer loop
      vertex -106.272 20.9315 -1.5
      vertex -109.254 20.5584 -1.5
      vertex -107.122 22.4037 -1.5
    endloop
  endfacet
  facet normal 0 0 -1
    outer loop
      vertex -106.272 23.876 -1.5
      vertex -108.074 25.7289 -1.5
      vertex -106.368 26.5501 -1.5
    endloop
  endfacet
  facet normal 0 0 -1
    outer loop
      vertex -109.675 22.4037 -1.5
      vertex -107.122 22.4037 -1.5
      vertex -109.254 20.5584 -1.5
    endloop
  endfacet
  facet normal 0 0 -1
    outer loop
      vertex -106.272 23.876 -1.5
      vertex -109.254 24.249 -1.5
      vertex -108.074 25.7289 -1.5
    endloop
  endfacet
  facet normal 0 0 -1
    outer loop
      vertex -107.122 22.4037 -1.5
      vertex -109.675 22.4037 -1.5
      vertex -109.254 24.249 -1.5
    endloop
  endfacet
  facet normal 0 0 -1
    outer loop
      vertex 25 -25 -1.5
      vertex 15.0211 -12.7457 -1.5
      vertex 25 25 -1.5
    endloop
  endfacet
  facet normal 0 0 -1
    outer loop
      vertex 14.1711 -14.218 -1.5
      vertex 25 -25 -1.5
      vertex 14.328 -25 -1.5
    endloop
  endfacet
  facet normal 0 0 -1
    outer loop
      vertex 25 -25 -1.5
      vertex 14.1711 -14.218 -1.5
      vertex 15.0211 -12.7457 -1.5
    endloop
  endfacet
  facet normal 0 0 -1
    outer loop
      vertex 14.1711 -11.2735 -1.5
      vertex 25 25 -1.5
      vertex 15.0211 -12.7457 -1.5
    endloop
  endfacet
  facet normal 0 0 -1
    outer loop
      vertex 14.1711 -11.2735 -1.5
      vertex 12.8176 25 -1.5
      vertex 25 25 -1.5
    endloop
  endfacet
  facet normal 0 0 -1
    outer loop
      vertex 12.4711 -11.2735 -1.5
      vertex 12.8176 25 -1.5
      vertex 14.1711 -11.2735 -1.5
    endloop
  endfacet
  facet normal 0 0 -1
    outer loop
      vertex -9.06389 30.5631 -1.5
      vertex 12.4711 -11.2735 -1.5
      vertex 11.6211 -12.7457 -1.5
    endloop
  endfacet
  facet normal 0 0 -1
    outer loop
      vertex 14.328 -25 -1.5
      vertex 11.6211 -12.7457 -1.5
      vertex 12.4711 -14.218 -1.5
    endloop
  endfacet
  facet normal 0 0 -1
    outer loop
      vertex -29.0235 -43.3621 -1.5
      vertex 11.6211 -12.7457 -1.5
      vertex -13.1233 -43.2773 -1.5
    endloop
  endfacet
  facet normal 0 0 -1
    outer loop
      vertex 12.4711 -11.2735 -1.5
      vertex -9.06389 30.5631 -1.5
      vertex 12.8176 25 -1.5
    endloop
  endfacet
  facet normal -0 0 -1
    outer loop
      vertex 14.5481 -48.8281 -1.5
      vertex 7.14328 -56.3398 -1.5
      vertex -13.1233 -43.2773 -1.5
    endloop
  endfacet
  facet normal -0 -0 -1
    outer loop
      vertex 7.19342 30.5978 -1.5
      vertex 12.8176 25 -1.5
      vertex 5.52887 30.6172 -1.5
    endloop
  endfacet
  facet normal 0 0 -1
    outer loop
      vertex 12.8176 25 -1.5
      vertex 7.19342 30.5978 -1.5
      vertex 7.43736 30.5746 -1.5
    endloop
  endfacet
  facet normal 0 0 -1
    outer loop
      vertex -13.1233 -43.2773 -1.5
      vertex 7.14328 -56.3398 -1.5
      vertex -9.69328 -56.4023 -1.5
    endloop
  endfacet
  facet normal 0 0 -1
    outer loop
      vertex 12.8176 25 -1.5
      vertex -9.06389 30.5631 -1.5
      vertex 5.52887 30.6172 -1.5
    endloop
  endfacet
  facet normal -0 0 -1
    outer loop
      vertex 11.6211 -12.7457 -1.5
      vertex -29.0235 -43.3621 -1.5
      vertex -9.06389 30.5631 -1.5
    endloop
  endfacet
  facet normal 0 0 -1
    outer loop
      vertex -9.06389 30.5631 -1.5
      vertex -23.1529 38.7144 -1.5
      vertex -13.9961 41.7412 -1.5
    endloop
  endfacet
  facet normal 0 -0 -1
    outer loop
      vertex -22.3029 40.1867 -1.5
      vertex -13.9961 41.7412 -1.5
      vertex -23.1529 38.7144 -1.5
    endloop
  endfacet
  facet normal 0 -0 -1
    outer loop
      vertex -16.1957 43.6351 -1.5
      vertex -13.9961 41.7412 -1.5
      vertex -22.3029 40.1867 -1.5
    endloop
  endfacet
  facet normal 0 0 -1
    outer loop
      vertex -16.1957 43.6351 -1.5
      vertex -22.3029 40.1867 -1.5
      vertex -21.5731 43.6187 -1.5
    endloop
  endfacet
  facet normal 0 0 -1
    outer loop
      vertex -13.9961 41.7412 -1.5
      vertex -16.1957 43.6351 -1.5
      vertex -15.8376 43.5337 -1.5
    endloop
  endfacet
  facet normal 0 -0 -1
    outer loop
      vertex -24.8529 38.7144 -1.5
      vertex -9.06389 30.5631 -1.5
      vertex -29.0235 -43.3621 -1.5
    endloop
  endfacet
  facet normal 0 0 -1
    outer loop
      vertex -9.06389 30.5631 -1.5
      vertex -24.8529 38.7144 -1.5
      vertex -23.1529 38.7144 -1.5
    endloop
  endfacet
  facet normal 0 0 -1
    outer loop
      vertex -32.613 43.5767 -1.5
      vertex -24.8529 38.7144 -1.5
      vertex -29.0235 -43.3621 -1.5
    endloop
  endfacet
  facet normal 0 0 -1
    outer loop
      vertex -24.8529 38.7144 -1.5
      vertex -32.613 43.5767 -1.5
      vertex -25.7029 40.1867 -1.5
    endloop
  endfacet
  facet normal 0 0 -1
    outer loop
      vertex -25.7029 40.1867 -1.5
      vertex -28.9837 43.5961 -1.5
      vertex -26.4636 43.6038 -1.5
    endloop
  endfacet
  facet normal 0 0 -1
    outer loop
      vertex -25.7029 40.1867 -1.5
      vertex -32.613 43.5767 -1.5
      vertex -28.9837 43.5961 -1.5
    endloop
  endfacet
  facet normal 0 0 -1
    outer loop
      vertex -39.1765 46.4454 -1.5
      vertex -32.613 43.5767 -1.5
      vertex -29.0235 -43.3621 -1.5
    endloop
  endfacet
  facet normal 0 0 -1
    outer loop
      vertex -32.613 43.5767 -1.5
      vertex -38.4764 46.3771 -1.5
      vertex -38.4097 46.3772 -1.5
    endloop
  endfacet
  facet normal -0 0 -1
    outer loop
      vertex -38.4097 46.3772 -1.5
      vertex -38.4764 46.3771 -1.5
      vertex -38.4117 46.3775 -1.5
    endloop
  endfacet
  facet normal 0 0 -1
    outer loop
      vertex -32.613 43.5767 -1.5
      vertex -39.1765 46.4454 -1.5
      vertex -38.4764 46.3771 -1.5
    endloop
  endfacet
  facet normal 0 0 -1
    outer loop
      vertex -38.4764 46.3771 -1.5
      vertex -39.1765 46.4454 -1.5
      vertex -38.6848 46.4268 -1.5
    endloop
  endfacet
  facet normal 0 0 -1
    outer loop
      vertex -47.9912 -62.4088 -1.5
      vertex -29.0235 -43.3621 -1.5
      vertex -47.1412 -63.8811 -1.5
    endloop
  endfacet
  facet normal 0 0 -1
    outer loop
      vertex -49.673 -74.2134 -1.5
      vertex -47.1412 -63.8811 -1.5
      vertex -29.0235 -43.3621 -1.5
    endloop
  endfacet
  facet normal 0 0 -1
    outer loop
      vertex -47.1412 -63.8811 -1.5
      vertex -49.673 -74.2134 -1.5
      vertex -47.9912 -65.3533 -1.5
    endloop
  endfacet
  facet normal 0 0 -1
    outer loop
      vertex -49.673 -74.2134 -1.5
      vertex -49.6912 -65.3533 -1.5
      vertex -47.9912 -65.3533 -1.5
    endloop
  endfacet
  facet normal 0 0 -1
    outer loop
      vertex -51.6005 -76.4534 -1.5
      vertex -49.6912 -65.3533 -1.5
      vertex -49.673 -74.2134 -1.5
    endloop
  endfacet
  facet normal -0 0 -1
    outer loop
      vertex -49.6912 -65.3533 -1.5
      vertex -51.6005 -76.4534 -1.5
      vertex -50.5412 -63.8811 -1.5
    endloop
  endfacet
  facet normal 0 0 1
    outer loop
      vertex 25 25 1.5
      vertex 15.0211 -12.7457 1.5
      vertex 25 -25 1.5
    endloop
  endfacet
  facet normal 0 0 1
    outer loop
      vertex 25 25 1.5
      vertex 14.1711 -11.2735 1.5
      vertex 15.0211 -12.7457 1.5
    endloop
  endfacet
  facet normal -0 0 1
    outer loop
      vertex 12.8176 25 1.5
      vertex 14.1711 -11.2735 1.5
      vertex 25 25 1.5
    endloop
  endfacet
  facet normal 0 0 1
    outer loop
      vertex 12.8176 25 1.5
      vertex 12.4711 -11.2735 1.5
      vertex 14.1711 -11.2735 1.5
    endloop
  endfacet
  facet normal 0 0 1
    outer loop
      vertex -9.06389 30.5631 1.5
      vertex 12.4711 -11.2735 1.5
      vertex 12.8176 25 1.5
    endloop
  endfacet
  facet normal 0 0 1
    outer loop
      vertex 12.4711 -11.2735 1.5
      vertex -9.06389 30.5631 1.5
      vertex 11.6211 -12.7457 1.5
    endloop
  endfacet
  facet normal 0 0 1
    outer loop
      vertex 7.19342 30.5978 1.5
      vertex 12.8176 25 1.5
      vertex 7.43736 30.5746 1.5
    endloop
  endfacet
  facet normal 0 0 1
    outer loop
      vertex 12.8176 25 1.5
      vertex 7.19342 30.5978 1.5
      vertex 5.52887 30.6172 1.5
    endloop
  endfacet
  facet normal 0 0 1
    outer loop
      vertex 11.6211 -12.7457 1.5
      vertex -13.1233 -43.2773 1.5
      vertex 7.45935 -56.2964 1.5
    endloop
  endfacet
  facet normal -0 0 1
    outer loop
      vertex -9.06389 30.5631 1.5
      vertex 12.8176 25 1.5
      vertex 5.52887 30.6172 1.5
    endloop
  endfacet
  facet normal 0 0 1
    outer loop
      vertex -29.0235 -43.3621 1.5
      vertex 11.6211 -12.7457 1.5
      vertex -9.06389 30.5631 1.5
    endloop
  endfacet
  facet normal 0 0 1
    outer loop
      vertex 7.45935 -56.2964 1.5
      vertex -13.1233 -43.2773 1.5
      vertex 7.14328 -56.3398 1.5
    endloop
  endfacet
  facet normal 0 0 1
    outer loop
      vertex 7.14328 -56.3398 1.5
      vertex -13.1233 -43.2773 1.5
      vertex -9.69328 -56.4023 1.5
    endloop
  endfacet
  facet normal -0 0 1
    outer loop
      vertex -23.1529 38.7144 1.5
      vertex -9.06389 30.5631 1.5
      vertex -13.9961 41.7412 1.5
    endloop
  endfacet
  facet normal 0 0 1
    outer loop
      vertex -16.1957 43.6351 1.5
      vertex -13.9961 41.7412 1.5
      vertex -15.8376 43.5337 1.5
    endloop
  endfacet
  facet normal 0 0 1
    outer loop
      vertex -13.9961 41.7412 1.5
      vertex -16.1957 43.6351 1.5
      vertex -22.3029 40.1867 1.5
    endloop
  endfacet
  facet normal 0 0 1
    outer loop
      vertex -22.3029 40.1867 1.5
      vertex -16.1957 43.6351 1.5
      vertex -21.5731 43.6187 1.5
    endloop
  endfacet
  facet normal 0 0 1
    outer loop
      vertex -13.9961 41.7412 1.5
      vertex -22.3029 40.1867 1.5
      vertex -23.1529 38.7144 1.5
    endloop
  endfacet
  facet normal -0 0 1
    outer loop
      vertex -24.8529 38.7144 1.5
      vertex -9.06389 30.5631 1.5
      vertex -23.1529 38.7144 1.5
    endloop
  endfacet
  facet normal 0 0 1
    outer loop
      vertex -9.06389 30.5631 1.5
      vertex -24.8529 38.7144 1.5
      vertex -29.0235 -43.3621 1.5
    endloop
  endfacet
  facet normal 0 0 1
    outer loop
      vertex -32.613 43.5767 1.5
      vertex -24.8529 38.7144 1.5
      vertex -25.7029 40.1867 1.5
    endloop
  endfacet
  facet normal -0 0 1
    outer loop
      vertex -28.9837 43.5961 1.5
      vertex -25.7029 40.1867 1.5
      vertex -26.4636 43.6038 1.5
    endloop
  endfacet
  facet normal -0 0 1
    outer loop
      vertex -32.613 43.5767 1.5
      vertex -25.7029 40.1867 1.5
      vertex -28.9837 43.5961 1.5
    endloop
  endfacet
  facet normal 0 0 1
    outer loop
      vertex 11.6211 -12.7457 1.5
      vertex -29.0235 -43.3621 1.5
      vertex -13.1233 -43.2773 1.5
    endloop
  endfacet
  facet normal 0 0 1
    outer loop
      vertex -24.8529 38.7144 1.5
      vertex -32.613 43.5767 1.5
      vertex -59.2591 43.5 1.5
    endloop
  endfacet
  facet normal -0 0 1
    outer loop
      vertex -38.4764 46.3771 1.5
      vertex -32.613 43.5767 1.5
      vertex -38.4097 46.3772 1.5
    endloop
  endfacet
  facet normal 0 0 1
    outer loop
      vertex -38.4764 46.3771 1.5
      vertex -38.4097 46.3772 1.5
      vertex -38.4117 46.3775 1.5
    endloop
  endfacet
  facet normal 0 0 1
    outer loop
      vertex -39.1765 46.4454 1.5
      vertex -32.613 43.5767 1.5
      vertex -38.4764 46.3771 1.5
    endloop
  endfacet
  facet normal 0 0 1
    outer loop
      vertex -39.1765 46.4454 1.5
      vertex -38.4764 46.3771 1.5
      vertex -38.6848 46.4268 1.5
    endloop
  endfacet
  facet normal 0 0 1
    outer loop
      vertex -32.613 43.5767 1.5
      vertex -39.1765 46.4454 1.5
      vertex -59.2591 43.5 1.5
    endloop
  endfacet
  facet normal 0 0 1
    outer loop
      vertex -24.8529 38.7144 1.5
      vertex -59.2591 43.5 1.5
      vertex -29.0235 -43.3621 1.5
    endloop
  endfacet
  facet normal 0 0 1
    outer loop
      vertex -49.673 -74.2134 1.5
      vertex -47.1412 -63.8811 1.5
      vertex -47.9912 -65.3533 1.5
    endloop
  endfacet
  facet normal -0 0 1
    outer loop
      vertex -47.1412 -63.8811 1.5
      vertex -49.673 -74.2134 1.5
      vertex -29.0235 -43.3621 1.5
    endloop
  endfacet
  facet normal -0 0 1
    outer loop
      vertex -49.6912 -65.3533 1.5
      vertex -49.673 -74.2134 1.5
      vertex -47.9912 -65.3533 1.5
    endloop
  endfacet
  facet normal 0 0 1
    outer loop
      vertex -51.6005 -76.4534 1.5
      vertex -49.6912 -65.3533 1.5
      vertex -50.5412 -63.8811 1.5
    endloop
  endfacet
  facet normal 0 0 1
    outer loop
      vertex -49.6912 -65.3533 1.5
      vertex -51.6005 -76.4534 1.5
      vertex -49.673 -74.2134 1.5
    endloop
  endfacet
  facet normal -0 0 1
    outer loop
      vertex 14.1711 -14.218 1.5
      vertex 25 -25 1.5
      vertex 15.0211 -12.7457 1.5
    endloop
  endfacet
  facet normal 0 0 1
    outer loop
      vertex 25 -25 1.5
      vertex 14.1711 -14.218 1.5
      vertex 14.328 -25 1.5
    endloop
  endfacet
  facet normal 0 0 1
    outer loop
      vertex 14.4861 -28.734 1.5
      vertex 15.8042 -46.8529 1.5
      vertex 16.019 -46.5835 1.5
    endloop
  endfacet
  facet normal 0 0 1
    outer loop
      vertex 14.4861 -28.734 1.5
      vertex 14.5481 -48.8281 1.5
      vertex 15.8042 -46.8529 1.5
    endloop
  endfacet
  facet normal 0 0 1
    outer loop
      vertex 11.6211 -12.7457 1.5
      vertex 14.4861 -28.734 1.5
      vertex 14.328 -25 1.5
    endloop
  endfacet
  facet normal -0 0 1
    outer loop
      vertex 12.4711 -14.218 1.5
      vertex 14.328 -25 1.5
      vertex 14.1711 -14.218 1.5
    endloop
  endfacet
  facet normal 0 0 1
    outer loop
      vertex 11.6211 -12.7457 1.5
      vertex 14.328 -25 1.5
      vertex 12.4711 -14.218 1.5
    endloop
  endfacet
  facet normal 0 0 1
    outer loop
      vertex 14.4861 -28.734 1.5
      vertex 11.6211 -12.7457 1.5
      vertex 7.45935 -56.2964 1.5
    endloop
  endfacet
  facet normal 0 0 1
    outer loop
      vertex 14.4861 -28.734 1.5
      vertex 7.45935 -56.2964 1.5
      vertex 14.5481 -48.8281 1.5
    endloop
  endfacet
  facet normal 0 0 1
    outer loop
      vertex 15.8042 -46.8529 1.5
      vertex 15.8958 -47.2022 1.5
      vertex 15.8906 -47.1092 1.5
    endloop
  endfacet
  facet normal 0 0 1
    outer loop
      vertex 15.8958 -47.2022 1.5
      vertex 15.8042 -46.8529 1.5
      vertex 14.5481 -48.8281 1.5
    endloop
  endfacet
  facet normal 0 0 1
    outer loop
      vertex -106.672 14.0367 1.5
      vertex -104.572 20.9315 1.5
      vertex -106.077 18.2074 1.5
    endloop
  endfacet
  facet normal -0 0 1
    outer loop
      vertex -106.272 20.9315 1.5
      vertex -106.077 18.2074 1.5
      vertex -104.572 20.9315 1.5
    endloop
  endfacet
  facet normal 0 0 1
    outer loop
      vertex -106.272 20.9315 1.5
      vertex -106.368 18.2573 1.5
      vertex -106.077 18.2074 1.5
    endloop
  endfacet
  facet normal 0 0 1
    outer loop
      vertex -109.254 20.5584 1.5
      vertex -106.272 20.9315 1.5
      vertex -107.122 22.4037 1.5
    endloop
  endfacet
  facet normal 0 0 1
    outer loop
      vertex -106.272 23.876 1.5
      vertex -109.254 24.249 1.5
      vertex -107.122 22.4037 1.5
    endloop
  endfacet
  facet normal 0 0 1
    outer loop
      vertex -106.272 20.9315 1.5
      vertex -108.074 19.0786 1.5
      vertex -106.368 18.2573 1.5
    endloop
  endfacet
  facet normal 0 0 1
    outer loop
      vertex -109.675 22.4037 1.5
      vertex -107.122 22.4037 1.5
      vertex -109.254 24.249 1.5
    endloop
  endfacet
  facet normal 0 0 1
    outer loop
      vertex -106.272 20.9315 1.5
      vertex -109.254 20.5584 1.5
      vertex -108.074 19.0786 1.5
    endloop
  endfacet
  facet normal 0 0 1
    outer loop
      vertex -107.122 22.4037 1.5
      vertex -109.675 22.4037 1.5
      vertex -109.254 20.5584 1.5
    endloop
  endfacet
  facet normal 0 0 1
    outer loop
      vertex -29.0235 -43.3621 1.5
      vertex -47.9912 -62.4088 1.5
      vertex -47.1412 -63.8811 1.5
    endloop
  endfacet
  facet normal -0 0 1
    outer loop
      vertex -103.024 -27.8996 1.5
      vertex -29.0235 -43.3621 1.5
      vertex -59.2591 43.5 1.5
    endloop
  endfacet
  facet normal 0 0 1
    outer loop
      vertex -29.0235 -43.3621 1.5
      vertex -49.6912 -62.4088 1.5
      vertex -47.9912 -62.4088 1.5
    endloop
  endfacet
  facet normal 0 0 1
    outer loop
      vertex -59.2591 43.5 1.5
      vertex -39.1765 46.4454 1.5
      vertex -54.7551 46.3355 1.5
    endloop
  endfacet
  facet normal -0 -0 1
    outer loop
      vertex -100.324 -38.9511 1.5
      vertex -29.0235 -43.3621 1.5
      vertex -103.024 -27.8996 1.5
    endloop
  endfacet
  facet normal 0 0 1
    outer loop
      vertex -29.0235 -43.3621 1.5
      vertex -100.324 -38.9511 1.5
      vertex -49.6912 -62.4088 1.5
    endloop
  endfacet
  facet normal 0 0 1
    outer loop
      vertex -49.6912 -62.4088 1.5
      vertex -100.324 -38.9511 1.5
      vertex -50.5412 -63.8811 1.5
    endloop
  endfacet
  facet normal 0 0 1
    outer loop
      vertex -51.6005 -76.4534 1.5
      vertex -66.2943 -83.0909 1.5
      vertex -66.2001 -83.2612 1.5
    endloop
  endfacet
  facet normal 0 0 1
    outer loop
      vertex -103.722 22.4037 1.5
      vertex -59.2591 43.5 1.5
      vertex -74.7626 43.3622 1.5
    endloop
  endfacet
  facet normal 0 0 1
    outer loop
      vertex -50.5412 -63.8811 1.5
      vertex -66.2943 -83.0909 1.5
      vertex -51.6005 -76.4534 1.5
    endloop
  endfacet
  facet normal 0 0 1
    outer loop
      vertex -66.2943 -83.0909 1.5
      vertex -77.7552 -89.5099 1.5
      vertex -76.9074 -90.5222 1.5
    endloop
  endfacet
  facet normal 0 0 1
    outer loop
      vertex -76.9074 -90.5222 1.5
      vertex -77.7552 -89.5099 1.5
      vertex -76.9933 -90.4724 1.5
    endloop
  endfacet
  facet normal 0 0 1
    outer loop
      vertex -103.722 22.4037 1.5
      vertex -74.7626 43.3622 1.5
      vertex -78.9855 43.3205 1.5
    endloop
  endfacet
  facet normal 0 0 1
    outer loop
      vertex -50.5412 -63.8811 1.5
      vertex -100.936 -71.8214 1.5
      vertex -66.2943 -83.0909 1.5
    endloop
  endfacet
  facet normal -0 -0 1
    outer loop
      vertex -100.445 -74.4405 1.5
      vertex -66.2943 -83.0909 1.5
      vertex -100.936 -71.8214 1.5
    endloop
  endfacet
  facet normal 0 0 1
    outer loop
      vertex -96.2719 38.8708 1.5
      vertex -78.9855 43.3205 1.5
      vertex -93.8263 43.1586 1.5
    endloop
  endfacet
  facet normal 0 0 1
    outer loop
      vertex -103.722 22.4037 1.5
      vertex -78.9855 43.3205 1.5
      vertex -96.2719 38.8708 1.5
    endloop
  endfacet
  facet normal 0 0 1
    outer loop
      vertex -66.2943 -83.0909 1.5
      vertex -100.445 -74.4405 1.5
      vertex -77.7552 -89.5099 1.5
    endloop
  endfacet
  facet normal -0 -0 1
    outer loop
      vertex -99.834 -76.7413 1.5
      vertex -77.7552 -89.5099 1.5
      vertex -100.445 -74.4405 1.5
    endloop
  endfacet
  facet normal 0 0 1
    outer loop
      vertex -100.936 -71.8214 1.5
      vertex -50.5412 -63.8811 1.5
      vertex -100.324 -38.9511 1.5
    endloop
  endfacet
  facet normal 0 0 1
    outer loop
      vertex -59.2591 43.5 1.5
      vertex -103.722 22.4037 1.5
      vertex -104.572 20.9315 1.5
    endloop
  endfacet
  facet normal -0 0 1
    outer loop
      vertex -104.272 30.8708 1.5
      vertex -103.722 22.4037 1.5
      vertex -96.2719 38.8708 1.5
    endloop
  endfacet
  facet normal -0 0 1
    outer loop
      vertex -104.888 26.5501 1.5
      vertex -103.722 22.4037 1.5
      vertex -104.272 30.8708 1.5
    endloop
  endfacet
  facet normal 0 0 1
    outer loop
      vertex -103.722 22.4037 1.5
      vertex -104.888 26.5501 1.5
      vertex -104.572 23.876 1.5
    endloop
  endfacet
  facet normal 0 0 1
    outer loop
      vertex -104.888 26.5501 1.5
      vertex -106.272 23.876 1.5
      vertex -104.572 23.876 1.5
    endloop
  endfacet
  facet normal -0 0 1
    outer loop
      vertex -106.368 26.5501 1.5
      vertex -106.272 23.876 1.5
      vertex -104.888 26.5501 1.5
    endloop
  endfacet
  facet normal -0 0 1
    outer loop
      vertex -108.074 25.7289 1.5
      vertex -106.272 23.876 1.5
      vertex -106.368 26.5501 1.5
    endloop
  endfacet
  facet normal -0 0 1
    outer loop
      vertex -109.254 24.249 1.5
      vertex -106.272 23.876 1.5
      vertex -108.074 25.7289 1.5
    endloop
  endfacet
  facet normal 0 -0 1
    outer loop
      vertex -89.2401 -90.7589 1.5
      vertex -77.7552 -89.5099 1.5
      vertex -99.834 -76.7413 1.5
    endloop
  endfacet
  facet normal 0 0 1
    outer loop
      vertex -77.7552 -89.5099 1.5
      vertex -89.2401 -90.7589 1.5
      vertex -82.1602 -91.78 1.5
    endloop
  endfacet
  facet normal -0 0 1
    outer loop
      vertex -107.284 -43.8242 1.5
      vertex -100.936 -71.8214 1.5
      vertex -100.324 -38.9511 1.5
    endloop
  endfacet
  facet normal 0 0 1
    outer loop
      vertex -108.037 -44.4572 1.5
      vertex -107.284 -43.8242 1.5
      vertex -107.645 -44.0881 1.5
    endloop
  endfacet
  facet normal 0 0 1
    outer loop
      vertex -107.284 -43.8242 1.5
      vertex -108.037 -44.4572 1.5
      vertex -110.425 -48.3643 1.5
    endloop
  endfacet
  facet normal 0 0 1
    outer loop
      vertex -110.425 -48.3643 1.5
      vertex -108.037 -44.4572 1.5
      vertex -110.331 -46.8512 1.5
    endloop
  endfacet
  facet normal 0 0 1
    outer loop
      vertex -107.284 -43.8242 1.5
      vertex -110.425 -48.3643 1.5
      vertex -111.466 -57.8792 1.5
    endloop
  endfacet
  facet normal 0 0 1
    outer loop
      vertex -107.284 -43.8242 1.5
      vertex -111.466 -57.8792 1.5
      vertex -100.936 -71.8214 1.5
    endloop
  endfacet
  facet normal 0 0 1
    outer loop
      vertex -104.228 -32.046 1.5
      vertex -103.024 -27.8996 1.5
      vertex -103.874 -29.3719 1.5
    endloop
  endfacet
  facet normal 0 0 1
    outer loop
      vertex -103.024 -27.8996 1.5
      vertex -104.228 -32.046 1.5
      vertex -100.324 -38.9511 1.5
    endloop
  endfacet
  facet normal -0 0 1
    outer loop
      vertex -105.574 -29.3719 1.5
      vertex -104.228 -32.046 1.5
      vertex -103.874 -29.3719 1.5
    endloop
  endfacet
  facet normal 0 0 1
    outer loop
      vertex -105.574 -29.3719 1.5
      vertex -105.67 -32.046 1.5
      vertex -104.228 -32.046 1.5
    endloop
  endfacet
  facet normal 0 0 1
    outer loop
      vertex -108.556 -29.7449 1.5
      vertex -105.574 -29.3719 1.5
      vertex -106.424 -27.8996 1.5
    endloop
  endfacet
  facet normal 0 0 1
    outer loop
      vertex -105.574 -26.4274 1.5
      vertex -108.556 -26.0543 1.5
      vertex -106.424 -27.8996 1.5
    endloop
  endfacet
  facet normal 0 0 1
    outer loop
      vertex -105.574 -29.3719 1.5
      vertex -107.376 -31.2248 1.5
      vertex -105.67 -32.046 1.5
    endloop
  endfacet
  facet normal 0 0 1
    outer loop
      vertex -108.977 -27.8996 1.5
      vertex -106.424 -27.8996 1.5
      vertex -108.556 -26.0543 1.5
    endloop
  endfacet
  facet normal 0 0 1
    outer loop
      vertex -105.574 -29.3719 1.5
      vertex -108.556 -29.7449 1.5
      vertex -107.376 -31.2248 1.5
    endloop
  endfacet
  facet normal 0 0 1
    outer loop
      vertex -106.424 -27.8996 1.5
      vertex -108.977 -27.8996 1.5
      vertex -108.556 -29.7449 1.5
    endloop
  endfacet
  facet normal 0 0 1
    outer loop
      vertex -59.2591 43.5 1.5
      vertex -103.874 -26.4274 1.5
      vertex -103.024 -27.8996 1.5
    endloop
  endfacet
  facet normal 0 0 1
    outer loop
      vertex -59.2591 43.5 1.5
      vertex -104.572 20.9315 1.5
      vertex -103.874 -26.4274 1.5
    endloop
  endfacet
  facet normal -0 0 1
    outer loop
      vertex -105.441 -23.7017 1.5
      vertex -103.874 -26.4274 1.5
      vertex -104.572 20.9315 1.5
    endloop
  endfacet
  facet normal 0 0 1
    outer loop
      vertex -105.441 -23.7017 1.5
      vertex -105.574 -26.4274 1.5
      vertex -103.874 -26.4274 1.5
    endloop
  endfacet
  facet normal -0 0 1
    outer loop
      vertex -105.67 -23.7533 1.5
      vertex -105.574 -26.4274 1.5
      vertex -105.441 -23.7017 1.5
    endloop
  endfacet
  facet normal -0 0 1
    outer loop
      vertex -107.376 -24.5745 1.5
      vertex -105.574 -26.4274 1.5
      vertex -105.67 -23.7533 1.5
    endloop
  endfacet
  facet normal -0 0 1
    outer loop
      vertex -108.556 -26.0543 1.5
      vertex -105.574 -26.4274 1.5
      vertex -107.376 -24.5745 1.5
    endloop
  endfacet
  facet normal 0 0 1
    outer loop
      vertex -104.572 20.9315 1.5
      vertex -106.672 14.0367 1.5
      vertex -107.071 8.32773 1.5
    endloop
  endfacet
  facet normal 0 0 1
    outer loop
      vertex -107.071 -9.26959 1.5
      vertex -104.572 20.9315 1.5
      vertex -107.071 8.32773 1.5
    endloop
  endfacet
  facet normal 0 0 1
    outer loop
      vertex -104.572 20.9315 1.5
      vertex -107.071 -9.26959 1.5
      vertex -105.441 -23.7017 1.5
    endloop
  endfacet
  facet normal 0 0 1
    outer loop
      vertex -105.441 -23.7017 1.5
      vertex -107.071 -9.26959 1.5
      vertex -106.672 -15.0009 1.5
    endloop
  endfacet
  facet normal 0 0 1
    outer loop
      vertex -23.1529 41.6589 1.5
      vertex -21.5731 43.6187 1.5
      vertex -23.0565 44.3331 1.5
    endloop
  endfacet
  facet normal 0 0 1
    outer loop
      vertex -21.5731 43.6187 1.5
      vertex -23.1529 41.6589 1.5
      vertex -22.3029 40.1867 1.5
    endloop
  endfacet
  facet normal 0 0 1
    outer loop
      vertex -23.0565 44.3331 1.5
      vertex -24.8529 41.6589 1.5
      vertex -23.1529 41.6589 1.5
    endloop
  endfacet
  facet normal -0 0 1
    outer loop
      vertex -24.9492 44.3331 1.5
      vertex -24.8529 41.6589 1.5
      vertex -23.0565 44.3331 1.5
    endloop
  endfacet
  facet normal -0 0 1
    outer loop
      vertex -26.4636 43.6038 1.5
      vertex -24.8529 41.6589 1.5
      vertex -24.9492 44.3331 1.5
    endloop
  endfacet
  facet normal 0 0 1
    outer loop
      vertex -24.8529 41.6589 1.5
      vertex -26.4636 43.6038 1.5
      vertex -25.7029 40.1867 1.5
    endloop
  endfacet
  facet normal 0.458093 -0.888904 0
    outer loop
      vertex -82.1602 -91.78 -1.5
      vertex -77.7552 -89.5099 1.5
      vertex -82.1602 -91.78 1.5
    endloop
  endfacet
  facet normal 0.458093 -0.888904 0
    outer loop
      vertex -77.7552 -89.5099 1.5
      vertex -82.1602 -91.78 -1.5
      vertex -77.7552 -89.5099 -1.5
    endloop
  endfacet
  facet normal -0.784077 -0.620663 0
    outer loop
      vertex -76.9933 -90.4724 -1.5
      vertex -77.7552 -89.5099 1.5
      vertex -77.7552 -89.5099 -1.5
    endloop
  endfacet
  facet normal -0.784077 -0.620663 0
    outer loop
      vertex -77.7552 -89.5099 1.5
      vertex -76.9933 -90.4724 -1.5
      vertex -76.9933 -90.4724 1.5
    endloop
  endfacet
  facet normal -0.501552 -0.865127 0
    outer loop
      vertex -76.9933 -90.4724 -1.5
      vertex -76.9074 -90.5222 1.5
      vertex -76.9933 -90.4724 1.5
    endloop
  endfacet
  facet normal -0.501552 -0.865127 -0
    outer loop
      vertex -76.9074 -90.5222 1.5
      vertex -76.9933 -90.4724 -1.5
      vertex -76.9074 -90.5222 -1.5
    endloop
  endfacet
  facet normal 0.573573 -0.819155 0
    outer loop
      vertex -76.9074 -90.5222 -1.5
      vertex -66.2943 -83.0909 1.5
      vertex -76.9074 -90.5222 1.5
    endloop
  endfacet
  facet normal 0.573573 -0.819155 0
    outer loop
      vertex -66.2943 -83.0909 1.5
      vertex -76.9074 -90.5222 -1.5
      vertex -66.2943 -83.0909 -1.5
    endloop
  endfacet
  facet normal -0.875053 -0.484028 0
    outer loop
      vertex -66.2001 -83.2612 -1.5
      vertex -66.2943 -83.0909 1.5
      vertex -66.2943 -83.0909 -1.5
    endloop
  endfacet
  facet normal -0.875053 -0.484028 0
    outer loop
      vertex -66.2943 -83.0909 1.5
      vertex -66.2001 -83.2612 -1.5
      vertex -66.2001 -83.2612 1.5
    endloop
  endfacet
  facet normal 0.422613 -0.90631 0
    outer loop
      vertex -66.2001 -83.2612 -1.5
      vertex -51.6005 -76.4534 1.5
      vertex -66.2001 -83.2612 1.5
    endloop
  endfacet
  facet normal 0.422613 -0.90631 0
    outer loop
      vertex -51.6005 -76.4534 1.5
      vertex -66.2001 -83.2612 -1.5
      vertex -51.6005 -76.4534 -1.5
    endloop
  endfacet
  facet normal 0.758001 -0.652253 0
    outer loop
      vertex -51.6005 -76.4534 1.5
      vertex -49.673 -74.2134 -1.5
      vertex -49.673 -74.2134 1.5
    endloop
  endfacet
  facet normal 0.758001 -0.652253 0
    outer loop
      vertex -49.673 -74.2134 -1.5
      vertex -51.6005 -76.4534 1.5
      vertex -51.6005 -76.4534 -1.5
    endloop
  endfacet
  facet normal 0.83103 -0.556228 0
    outer loop
      vertex -49.673 -74.2134 1.5
      vertex -29.0235 -43.3621 -1.5
      vertex -29.0235 -43.3621 1.5
    endloop
  endfacet
  facet normal 0.83103 -0.556228 0
    outer loop
      vertex -29.0235 -43.3621 -1.5
      vertex -49.673 -74.2134 1.5
      vertex -49.673 -74.2134 -1.5
    endloop
  endfacet
  facet normal 0.00533319 -0.999986 0
    outer loop
      vertex -29.0235 -43.3621 -1.5
      vertex -13.1233 -43.2773 1.5
      vertex -29.0235 -43.3621 1.5
    endloop
  endfacet
  facet normal 0.00533319 -0.999986 0
    outer loop
      vertex -13.1233 -43.2773 1.5
      vertex -29.0235 -43.3621 -1.5
      vertex -13.1233 -43.2773 -1.5
    endloop
  endfacet
  facet normal -0.967507 -0.252843 0
    outer loop
      vertex -9.69328 -56.4023 -1.5
      vertex -13.1233 -43.2773 1.5
      vertex -13.1233 -43.2773 -1.5
    endloop
  endfacet
  facet normal -0.967507 -0.252843 0
    outer loop
      vertex -13.1233 -43.2773 1.5
      vertex -9.69328 -56.4023 -1.5
      vertex -9.69328 -56.4023 1.5
    endloop
  endfacet
  facet normal 0.00371213 -0.999993 0
    outer loop
      vertex -9.69328 -56.4023 -1.5
      vertex 7.14328 -56.3398 1.5
      vertex -9.69328 -56.4023 1.5
    endloop
  endfacet
  facet normal 0.00371213 -0.999993 0
    outer loop
      vertex 7.14328 -56.3398 1.5
      vertex -9.69328 -56.4023 -1.5
      vertex 7.14328 -56.3398 -1.5
    endloop
  endfacet
  facet normal 0.136035 -0.990704 0
    outer loop
      vertex 7.14328 -56.3398 -1.5
      vertex 7.45935 -56.2964 1.5
      vertex 7.14328 -56.3398 1.5
    endloop
  endfacet
  facet normal 0.136035 -0.990704 0
    outer loop
      vertex 7.45935 -56.2964 1.5
      vertex 7.14328 -56.3398 -1.5
      vertex 7.45935 -56.2964 -1.5
    endloop
  endfacet
  facet normal 0.725297 -0.688436 0
    outer loop
      vertex 7.45935 -56.2964 1.5
      vertex 14.5481 -48.8281 -1.5
      vertex 14.5481 -48.8281 1.5
    endloop
  endfacet
  facet normal 0.725297 -0.688436 0
    outer loop
      vertex 14.5481 -48.8281 -1.5
      vertex 7.45935 -56.2964 1.5
      vertex 7.45935 -56.2964 -1.5
    endloop
  endfacet
  facet normal 0.769899 -0.638165 0
    outer loop
      vertex 14.5481 -48.8281 1.5
      vertex 15.8958 -47.2022 -1.5
      vertex 15.8958 -47.2022 1.5
    endloop
  endfacet
  facet normal 0.769899 -0.638165 0
    outer loop
      vertex 15.8958 -47.2022 -1.5
      vertex 14.5481 -48.8281 1.5
      vertex 14.5481 -48.8281 -1.5
    endloop
  endfacet
  facet normal 0.99844 0.0558268 0
    outer loop
      vertex 15.8958 -47.2022 1.5
      vertex 15.8906 -47.1092 -1.5
      vertex 15.8906 -47.1092 1.5
    endloop
  endfacet
  facet normal 0.99844 0.0558268 0
    outer loop
      vertex 15.8906 -47.1092 -1.5
      vertex 15.8958 -47.2022 1.5
      vertex 15.8958 -47.2022 -1.5
    endloop
  endfacet
  facet normal 0.947606 0.319443 0
    outer loop
      vertex 15.8906 -47.1092 1.5
      vertex 15.8042 -46.8529 -1.5
      vertex 15.8042 -46.8529 1.5
    endloop
  endfacet
  facet normal 0.947606 0.319443 0
    outer loop
      vertex 15.8042 -46.8529 -1.5
      vertex 15.8906 -47.1092 1.5
      vertex 15.8906 -47.1092 -1.5
    endloop
  endfacet
  facet normal 0.781887 -0.62342 0
    outer loop
      vertex 15.8042 -46.8529 1.5
      vertex 16.019 -46.5835 -1.5
      vertex 16.019 -46.5835 1.5
    endloop
  endfacet
  facet normal 0.781887 -0.62342 0
    outer loop
      vertex 16.019 -46.5835 -1.5
      vertex 15.8042 -46.8529 1.5
      vertex 15.8042 -46.8529 -1.5
    endloop
  endfacet
  facet normal 0.996333 0.0855642 0
    outer loop
      vertex 16.019 -46.5835 1.5
      vertex 14.4861 -28.734 -1.5
      vertex 14.4861 -28.734 1.5
    endloop
  endfacet
  facet normal 0.996333 0.0855642 0
    outer loop
      vertex 14.4861 -28.734 -1.5
      vertex 16.019 -46.5835 1.5
      vertex 16.019 -46.5835 -1.5
    endloop
  endfacet
  facet normal 0.999105 0.0423028 0
    outer loop
      vertex 14.4861 -28.734 1.5
      vertex 14.328 -25 -1.5
      vertex 14.328 -25 1.5
    endloop
  endfacet
  facet normal 0.999105 0.0423028 0
    outer loop
      vertex 14.328 -25 -1.5
      vertex 14.4861 -28.734 1.5
      vertex 14.4861 -28.734 -1.5
    endloop
  endfacet
  facet normal 0 -1 0
    outer loop
      vertex 14.328 -25 -1.5
      vertex 25 -25 1.5
      vertex 14.328 -25 1.5
    endloop
  endfacet
  facet normal 0 -1 -0
    outer loop
      vertex 25 -25 1.5
      vertex 14.328 -25 -1.5
      vertex 25 -25 -1.5
    endloop
  endfacet
  facet normal 1 -0 0
    outer loop
      vertex 25 -25 1.5
      vertex 25 25 -1.5
      vertex 25 25 1.5
    endloop
  endfacet
  facet normal 1 0 0
    outer loop
      vertex 25 25 -1.5
      vertex 25 -25 1.5
      vertex 25 -25 -1.5
    endloop
  endfacet
  facet normal 0 1 -0
    outer loop
      vertex 25 25 -1.5
      vertex 12.8176 25 1.5
      vertex 25 25 1.5
    endloop
  endfacet
  facet normal 0 1 0
    outer loop
      vertex 12.8176 25 1.5
      vertex 25 25 -1.5
      vertex 12.8176 25 -1.5
    endloop
  endfacet
  facet normal 0.719539 0.694452 0
    outer loop
      vertex 12.8176 25 1.5
      vertex 7.43736 30.5746 -1.5
      vertex 7.43736 30.5746 1.5
    endloop
  endfacet
  facet normal 0.719539 0.694452 0
    outer loop
      vertex 7.43736 30.5746 -1.5
      vertex 12.8176 25 1.5
      vertex 12.8176 25 -1.5
    endloop
  endfacet
  facet normal 0.0946781 0.995508 -0
    outer loop
      vertex 7.43736 30.5746 -1.5
      vertex 7.19342 30.5978 1.5
      vertex 7.43736 30.5746 1.5
    endloop
  endfacet
  facet normal 0.0946781 0.995508 0
    outer loop
      vertex 7.19342 30.5978 1.5
      vertex 7.43736 30.5746 -1.5
      vertex 7.19342 30.5978 -1.5
    endloop
  endfacet
  facet normal 0.011654 0.999932 -0
    outer loop
      vertex 7.19342 30.5978 -1.5
      vertex 5.52887 30.6172 1.5
      vertex 7.19342 30.5978 1.5
    endloop
  endfacet
  facet normal 0.011654 0.999932 0
    outer loop
      vertex 5.52887 30.6172 1.5
      vertex 7.19342 30.5978 -1.5
      vertex 5.52887 30.6172 -1.5
    endloop
  endfacet
  facet normal -0.00370729 0.999993 0
    outer loop
      vertex 5.52887 30.6172 -1.5
      vertex -9.06389 30.5631 1.5
      vertex 5.52887 30.6172 1.5
    endloop
  endfacet
  facet normal -0.00370729 0.999993 0
    outer loop
      vertex -9.06389 30.5631 1.5
      vertex 5.52887 30.6172 -1.5
      vertex -9.06389 30.5631 -1.5
    endloop
  endfacet
  facet normal 0.914897 0.403688 0
    outer loop
      vertex -9.06389 30.5631 1.5
      vertex -13.9961 41.7412 -1.5
      vertex -13.9961 41.7412 1.5
    endloop
  endfacet
  facet normal 0.914897 0.403688 0
    outer loop
      vertex -13.9961 41.7412 -1.5
      vertex -9.06389 30.5631 1.5
      vertex -9.06389 30.5631 -1.5
    endloop
  endfacet
  facet normal 0.697509 0.716576 -0
    outer loop
      vertex -13.9961 41.7412 -1.5
      vertex -15.8376 43.5337 1.5
      vertex -13.9961 41.7412 1.5
    endloop
  endfacet
  facet normal 0.697509 0.716576 0
    outer loop
      vertex -15.8376 43.5337 1.5
      vertex -13.9961 41.7412 -1.5
      vertex -15.8376 43.5337 -1.5
    endloop
  endfacet
  facet normal 0.272449 0.96217 -0
    outer loop
      vertex -15.8376 43.5337 -1.5
      vertex -16.1957 43.6351 1.5
      vertex -15.8376 43.5337 1.5
    endloop
  endfacet
  facet normal 0.272449 0.96217 0
    outer loop
      vertex -16.1957 43.6351 1.5
      vertex -15.8376 43.5337 -1.5
      vertex -16.1957 43.6351 -1.5
    endloop
  endfacet
  facet normal -0.00304979 0.999995 0
    outer loop
      vertex -16.1957 43.6351 -1.5
      vertex -21.5731 43.6187 1.5
      vertex -16.1957 43.6351 1.5
    endloop
  endfacet
  facet normal -0.00304979 0.999995 0
    outer loop
      vertex -21.5731 43.6187 1.5
      vertex -16.1957 43.6351 -1.5
      vertex -21.5731 43.6187 -1.5
    endloop
  endfacet
  facet normal 0.4339 0.900961 -0
    outer loop
      vertex -21.5731 43.6187 -1.5
      vertex -23.0565 44.3331 1.5
      vertex -21.5731 43.6187 1.5
    endloop
  endfacet
  facet normal 0.4339 0.900961 0
    outer loop
      vertex -23.0565 44.3331 1.5
      vertex -21.5731 43.6187 -1.5
      vertex -23.0565 44.3331 -1.5
    endloop
  endfacet
  facet normal 0 1 -0
    outer loop
      vertex -23.0565 44.3331 -1.5
      vertex -24.9492 44.3331 1.5
      vertex -23.0565 44.3331 1.5
    endloop
  endfacet
  facet normal 0 1 0
    outer loop
      vertex -24.9492 44.3331 1.5
      vertex -23.0565 44.3331 -1.5
      vertex -24.9492 44.3331 -1.5
    endloop
  endfacet
  facet normal -0.433885 0.900968 0
    outer loop
      vertex -24.9492 44.3331 -1.5
      vertex -26.4636 43.6038 1.5
      vertex -24.9492 44.3331 1.5
    endloop
  endfacet
  facet normal -0.433885 0.900968 0
    outer loop
      vertex -26.4636 43.6038 1.5
      vertex -24.9492 44.3331 -1.5
      vertex -26.4636 43.6038 -1.5
    endloop
  endfacet
  facet normal -0.00305542 0.999995 0
    outer loop
      vertex -26.4636 43.6038 -1.5
      vertex -28.9837 43.5961 1.5
      vertex -26.4636 43.6038 1.5
    endloop
  endfacet
  facet normal -0.00305542 0.999995 0
    outer loop
      vertex -28.9837 43.5961 1.5
      vertex -26.4636 43.6038 -1.5
      vertex -28.9837 43.5961 -1.5
    endloop
  endfacet
  facet normal -0.00534531 0.999986 0
    outer loop
      vertex -28.9837 43.5961 -1.5
      vertex -32.613 43.5767 1.5
      vertex -28.9837 43.5961 1.5
    endloop
  endfacet
  facet normal -0.00534531 0.999986 0
    outer loop
      vertex -32.613 43.5767 1.5
      vertex -28.9837 43.5961 -1.5
      vertex -32.613 43.5767 -1.5
    endloop
  endfacet
  facet normal 0.435013 0.900424 -0
    outer loop
      vertex -32.613 43.5767 -1.5
      vertex -38.4097 46.3772 1.5
      vertex -32.613 43.5767 1.5
    endloop
  endfacet
  facet normal 0.435013 0.900424 0
    outer loop
      vertex -38.4097 46.3772 1.5
      vertex -32.613 43.5767 -1.5
      vertex -38.4097 46.3772 -1.5
    endloop
  endfacet
  facet normal 0.14834 0.988936 -0
    outer loop
      vertex -38.4097 46.3772 -1.5
      vertex -38.4117 46.3775 1.5
      vertex -38.4097 46.3772 1.5
    endloop
  endfacet
  facet normal 0.14834 0.988936 0
    outer loop
      vertex -38.4117 46.3775 1.5
      vertex -38.4097 46.3772 -1.5
      vertex -38.4117 46.3775 -1.5
    endloop
  endfacet
  facet normal -0.00618226 0.999981 0
    outer loop
      vertex -38.4117 46.3775 -1.5
      vertex -38.4764 46.3771 1.5
      vertex -38.4117 46.3775 1.5
    endloop
  endfacet
  facet normal -0.00618226 0.999981 0
    outer loop
      vertex -38.4764 46.3771 1.5
      vertex -38.4117 46.3775 -1.5
      vertex -38.4764 46.3771 -1.5
    endloop
  endfacet
  facet normal 0.231978 0.972721 -0
    outer loop
      vertex -38.4764 46.3771 -1.5
      vertex -38.6848 46.4268 1.5
      vertex -38.4764 46.3771 1.5
    endloop
  endfacet
  facet normal 0.231978 0.972721 0
    outer loop
      vertex -38.6848 46.4268 1.5
      vertex -38.4764 46.3771 -1.5
      vertex -38.6848 46.4268 -1.5
    endloop
  endfacet
  facet normal 0.0378009 0.999285 -0
    outer loop
      vertex -38.6848 46.4268 -1.5
      vertex -39.1765 46.4454 1.5
      vertex -38.6848 46.4268 1.5
    endloop
  endfacet
  facet normal 0.0378009 0.999285 0
    outer loop
      vertex -39.1765 46.4454 1.5
      vertex -38.6848 46.4268 -1.5
      vertex -39.1765 46.4454 -1.5
    endloop
  endfacet
  facet normal -0.00705437 0.999975 0
    outer loop
      vertex -39.1765 46.4454 -1.5
      vertex -54.7551 46.3355 1.5
      vertex -39.1765 46.4454 1.5
    endloop
  endfacet
  facet normal -0.00705437 0.999975 0
    outer loop
      vertex -54.7551 46.3355 1.5
      vertex -39.1765 46.4454 -1.5
      vertex -54.7551 46.3355 -1.5
    endloop
  endfacet
  facet normal -0.532766 0.846263 0
    outer loop
      vertex -54.7551 46.3355 -1.5
      vertex -59.2591 43.5 1.5
      vertex -54.7551 46.3355 1.5
    endloop
  endfacet
  facet normal -0.532766 0.846263 0
    outer loop
      vertex -59.2591 43.5 1.5
      vertex -54.7551 46.3355 -1.5
      vertex -59.2591 43.5 -1.5
    endloop
  endfacet
  facet normal -0.00888796 0.999961 0
    outer loop
      vertex -59.2591 43.5 -1.5
      vertex -74.7626 43.3622 1.5
      vertex -59.2591 43.5 1.5
    endloop
  endfacet
  facet normal -0.00888796 0.999961 0
    outer loop
      vertex -74.7626 43.3622 1.5
      vertex -59.2591 43.5 -1.5
      vertex -74.7626 43.3622 -1.5
    endloop
  endfacet
  facet normal -0.00987425 0.999951 0
    outer loop
      vertex -74.7626 43.3622 -1.5
      vertex -78.9855 43.3205 1.5
      vertex -74.7626 43.3622 1.5
    endloop
  endfacet
  facet normal -0.00987425 0.999951 0
    outer loop
      vertex -78.9855 43.3205 1.5
      vertex -74.7626 43.3622 -1.5
      vertex -78.9855 43.3205 -1.5
    endloop
  endfacet
  facet normal -0.0109085 0.999941 0
    outer loop
      vertex -78.9855 43.3205 -1.5
      vertex -93.8263 43.1586 1.5
      vertex -78.9855 43.3205 1.5
    endloop
  endfacet
  facet normal -0.0109085 0.999941 0
    outer loop
      vertex -93.8263 43.1586 1.5
      vertex -78.9855 43.3205 -1.5
      vertex -93.8263 43.1586 -1.5
    endloop
  endfacet
  facet normal -0.868642 0.495441 0
    outer loop
      vertex -96.2719 38.8708 -1.5
      vertex -93.8263 43.1586 1.5
      vertex -93.8263 43.1586 -1.5
    endloop
  endfacet
  facet normal -0.868642 0.495441 0
    outer loop
      vertex -93.8263 43.1586 1.5
      vertex -96.2719 38.8708 -1.5
      vertex -96.2719 38.8708 1.5
    endloop
  endfacet
  facet normal -0.707102 0.707111 0
    outer loop
      vertex -104.272 30.8708 -1.5
      vertex -96.2719 38.8708 1.5
      vertex -96.2719 38.8708 -1.5
    endloop
  endfacet
  facet normal -0.707102 0.707111 0
    outer loop
      vertex -96.2719 38.8708 1.5
      vertex -104.272 30.8708 -1.5
      vertex -104.272 30.8708 1.5
    endloop
  endfacet
  facet normal -0.989989 0.141142 0
    outer loop
      vertex -104.888 26.5501 -1.5
      vertex -104.272 30.8708 1.5
      vertex -104.272 30.8708 -1.5
    endloop
  endfacet
  facet normal -0.989989 0.141142 0
    outer loop
      vertex -104.272 30.8708 1.5
      vertex -104.888 26.5501 -1.5
      vertex -104.888 26.5501 1.5
    endloop
  endfacet
  facet normal 0 1 -0
    outer loop
      vertex -104.888 26.5501 -1.5
      vertex -106.368 26.5501 1.5
      vertex -104.888 26.5501 1.5
    endloop
  endfacet
  facet normal 0 1 0
    outer loop
      vertex -106.368 26.5501 1.5
      vertex -104.888 26.5501 -1.5
      vertex -106.368 26.5501 -1.5
    endloop
  endfacet
  facet normal -0.433727 0.901044 0
    outer loop
      vertex -106.368 26.5501 -1.5
      vertex -108.074 25.7289 1.5
      vertex -106.368 26.5501 1.5
    endloop
  endfacet
  facet normal -0.433727 0.901044 0
    outer loop
      vertex -108.074 25.7289 1.5
      vertex -106.368 26.5501 -1.5
      vertex -108.074 25.7289 -1.5
    endloop
  endfacet
  facet normal -0.781878 0.623431 0
    outer loop
      vertex -109.254 24.249 -1.5
      vertex -108.074 25.7289 1.5
      vertex -108.074 25.7289 -1.5
    endloop
  endfacet
  facet normal -0.781878 0.623431 0
    outer loop
      vertex -108.074 25.7289 1.5
      vertex -109.254 24.249 -1.5
      vertex -109.254 24.249 1.5
    endloop
  endfacet
  facet normal -0.974948 0.222432 0
    outer loop
      vertex -109.675 22.4037 -1.5
      vertex -109.254 24.249 1.5
      vertex -109.254 24.249 -1.5
    endloop
  endfacet
  facet normal -0.974948 0.222432 0
    outer loop
      vertex -109.254 24.249 1.5
      vertex -109.675 22.4037 -1.5
      vertex -109.675 22.4037 1.5
    endloop
  endfacet
  facet normal -0.974948 -0.222432 0
    outer loop
      vertex -109.254 20.5584 -1.5
      vertex -109.675 22.4037 1.5
      vertex -109.675 22.4037 -1.5
    endloop
  endfacet
  facet normal -0.974948 -0.222432 0
    outer loop
      vertex -109.675 22.4037 1.5
      vertex -109.254 20.5584 -1.5
      vertex -109.254 20.5584 1.5
    endloop
  endfacet
  facet normal -0.781858 -0.623457 0
    outer loop
      vertex -108.074 19.0786 -1.5
      vertex -109.254 20.5584 1.5
      vertex -109.254 20.5584 -1.5
    endloop
  endfacet
  facet normal -0.781858 -0.623457 0
    outer loop
      vertex -109.254 20.5584 1.5
      vertex -108.074 19.0786 -1.5
      vertex -108.074 19.0786 1.5
    endloop
  endfacet
  facet normal -0.43377 -0.901024 0
    outer loop
      vertex -108.074 19.0786 -1.5
      vertex -106.368 18.2573 1.5
      vertex -108.074 19.0786 1.5
    endloop
  endfacet
  facet normal -0.43377 -0.901024 -0
    outer loop
      vertex -106.368 18.2573 1.5
      vertex -108.074 19.0786 -1.5
      vertex -106.368 18.2573 -1.5
    endloop
  endfacet
  facet normal -0.169011 -0.985614 0
    outer loop
      vertex -106.368 18.2573 -1.5
      vertex -106.077 18.2074 1.5
      vertex -106.368 18.2573 1.5
    endloop
  endfacet
  facet normal -0.169011 -0.985614 -0
    outer loop
      vertex -106.077 18.2074 1.5
      vertex -106.368 18.2573 -1.5
      vertex -106.077 18.2074 -1.5
    endloop
  endfacet
  facet normal -0.989977 0.141232 0
    outer loop
      vertex -106.672 14.0367 -1.5
      vertex -106.077 18.2074 1.5
      vertex -106.077 18.2074 -1.5
    endloop
  endfacet
  facet normal -0.989977 0.141232 0
    outer loop
      vertex -106.077 18.2074 1.5
      vertex -106.672 14.0367 -1.5
      vertex -106.672 14.0367 1.5
    endloop
  endfacet
  facet normal -0.997567 0.0697199 0
    outer loop
      vertex -107.071 8.32773 -1.5
      vertex -106.672 14.0367 1.5
      vertex -106.672 14.0367 -1.5
    endloop
  endfacet
  facet normal -0.997567 0.0697199 0
    outer loop
      vertex -106.672 14.0367 1.5
      vertex -107.071 8.32773 -1.5
      vertex -107.071 8.32773 1.5
    endloop
  endfacet
  facet normal -1 0 0
    outer loop
      vertex -107.071 -9.26959 -1.5
      vertex -107.071 8.32773 1.5
      vertex -107.071 8.32773 -1.5
    endloop
  endfacet
  facet normal -1 -0 0
    outer loop
      vertex -107.071 8.32773 1.5
      vertex -107.071 -9.26959 -1.5
      vertex -107.071 -9.26959 1.5
    endloop
  endfacet
  facet normal -0.997585 -0.0694495 0
    outer loop
      vertex -106.672 -15.0009 -1.5
      vertex -107.071 -9.26959 1.5
      vertex -107.071 -9.26959 -1.5
    endloop
  endfacet
  facet normal -0.997585 -0.0694495 0
    outer loop
      vertex -107.071 -9.26959 1.5
      vertex -106.672 -15.0009 -1.5
      vertex -106.672 -15.0009 1.5
    endloop
  endfacet
  facet normal -0.990139 -0.140086 0
    outer loop
      vertex -105.441 -23.7017 -1.5
      vertex -106.672 -15.0009 1.5
      vertex -106.672 -15.0009 -1.5
    endloop
  endfacet
  facet normal -0.990139 -0.140086 0
    outer loop
      vertex -106.672 -15.0009 1.5
      vertex -105.441 -23.7017 -1.5
      vertex -105.441 -23.7017 1.5
    endloop
  endfacet
  facet normal -0.219816 0.975541 0
    outer loop
      vertex -105.441 -23.7017 -1.5
      vertex -105.67 -23.7533 1.5
      vertex -105.441 -23.7017 1.5
    endloop
  endfacet
  facet normal -0.219816 0.975541 0
    outer loop
      vertex -105.67 -23.7533 1.5
      vertex -105.441 -23.7017 -1.5
      vertex -105.67 -23.7533 -1.5
    endloop
  endfacet
  facet normal -0.433727 0.901044 0
    outer loop
      vertex -105.67 -23.7533 -1.5
      vertex -107.376 -24.5745 1.5
      vertex -105.67 -23.7533 1.5
    endloop
  endfacet
  facet normal -0.433727 0.901044 0
    outer loop
      vertex -107.376 -24.5745 1.5
      vertex -105.67 -23.7533 -1.5
      vertex -107.376 -24.5745 -1.5
    endloop
  endfacet
  facet normal -0.781858 0.623457 0
    outer loop
      vertex -108.556 -26.0543 -1.5
      vertex -107.376 -24.5745 1.5
      vertex -107.376 -24.5745 -1.5
    endloop
  endfacet
  facet normal -0.781858 0.623457 0
    outer loop
      vertex -107.376 -24.5745 1.5
      vertex -108.556 -26.0543 -1.5
      vertex -108.556 -26.0543 1.5
    endloop
  endfacet
  facet normal -0.974948 0.222432 0
    outer loop
      vertex -108.977 -27.8996 -1.5
      vertex -108.556 -26.0543 1.5
      vertex -108.556 -26.0543 -1.5
    endloop
  endfacet
  facet normal -0.974948 0.222432 0
    outer loop
      vertex -108.556 -26.0543 1.5
      vertex -108.977 -27.8996 -1.5
      vertex -108.977 -27.8996 1.5
    endloop
  endfacet
  facet normal -0.974948 -0.222432 0
    outer loop
      vertex -108.556 -29.7449 -1.5
      vertex -108.977 -27.8996 1.5
      vertex -108.977 -27.8996 -1.5
    endloop
  endfacet
  facet normal -0.974948 -0.222432 0
    outer loop
      vertex -108.977 -27.8996 1.5
      vertex -108.556 -29.7449 -1.5
      vertex -108.556 -29.7449 1.5
    endloop
  endfacet
  facet normal -0.781878 -0.623431 0
    outer loop
      vertex -107.376 -31.2248 -1.5
      vertex -108.556 -29.7449 1.5
      vertex -108.556 -29.7449 -1.5
    endloop
  endfacet
  facet normal -0.781878 -0.623431 0
    outer loop
      vertex -108.556 -29.7449 1.5
      vertex -107.376 -31.2248 -1.5
      vertex -107.376 -31.2248 1.5
    endloop
  endfacet
  facet normal -0.433727 -0.901044 0
    outer loop
      vertex -107.376 -31.2248 -1.5
      vertex -105.67 -32.046 1.5
      vertex -107.376 -31.2248 1.5
    endloop
  endfacet
  facet normal -0.433727 -0.901044 -0
    outer loop
      vertex -105.67 -32.046 1.5
      vertex -107.376 -31.2248 -1.5
      vertex -105.67 -32.046 -1.5
    endloop
  endfacet
  facet normal 0 -1 0
    outer loop
      vertex -105.67 -32.046 -1.5
      vertex -104.228 -32.046 1.5
      vertex -105.67 -32.046 1.5
    endloop
  endfacet
  facet normal 0 -1 -0
    outer loop
      vertex -104.228 -32.046 1.5
      vertex -105.67 -32.046 -1.5
      vertex -104.228 -32.046 -1.5
    endloop
  endfacet
  facet normal -0.870502 -0.492164 0
    outer loop
      vertex -100.324 -38.9511 -1.5
      vertex -104.228 -32.046 1.5
      vertex -104.228 -32.046 -1.5
    endloop
  endfacet
  facet normal -0.870502 -0.492164 0
    outer loop
      vertex -104.228 -32.046 1.5
      vertex -100.324 -38.9511 -1.5
      vertex -100.324 -38.9511 1.5
    endloop
  endfacet
  facet normal -0.573549 0.819171 0
    outer loop
      vertex -100.324 -38.9511 -1.5
      vertex -107.284 -43.8242 1.5
      vertex -100.324 -38.9511 1.5
    endloop
  endfacet
  facet normal -0.573549 0.819171 0
    outer loop
      vertex -107.284 -43.8242 1.5
      vertex -100.324 -38.9511 -1.5
      vertex -107.284 -43.8242 -1.5
    endloop
  endfacet
  facet normal -0.590151 0.807293 0
    outer loop
      vertex -107.284 -43.8242 -1.5
      vertex -107.645 -44.0881 1.5
      vertex -107.284 -43.8242 1.5
    endloop
  endfacet
  facet normal -0.590151 0.807293 0
    outer loop
      vertex -107.645 -44.0881 1.5
      vertex -107.284 -43.8242 -1.5
      vertex -107.645 -44.0881 -1.5
    endloop
  endfacet
  facet normal -0.685521 0.728053 0
    outer loop
      vertex -107.645 -44.0881 -1.5
      vertex -108.037 -44.4572 1.5
      vertex -107.645 -44.0881 1.5
    endloop
  endfacet
  facet normal -0.685521 0.728053 0
    outer loop
      vertex -108.037 -44.4572 1.5
      vertex -107.645 -44.0881 -1.5
      vertex -108.037 -44.4572 -1.5
    endloop
  endfacet
  facet normal -0.722026 0.691866 0
    outer loop
      vertex -110.331 -46.8512 -1.5
      vertex -108.037 -44.4572 1.5
      vertex -108.037 -44.4572 -1.5
    endloop
  endfacet
  facet normal -0.722026 0.691866 0
    outer loop
      vertex -108.037 -44.4572 1.5
      vertex -110.331 -46.8512 -1.5
      vertex -110.331 -46.8512 1.5
    endloop
  endfacet
  facet normal -0.998076 0.0620046 0
    outer loop
      vertex -110.425 -48.3643 -1.5
      vertex -110.331 -46.8512 1.5
      vertex -110.331 -46.8512 -1.5
    endloop
  endfacet
  facet normal -0.998076 0.0620046 0
    outer loop
      vertex -110.331 -46.8512 1.5
      vertex -110.425 -48.3643 -1.5
      vertex -110.425 -48.3643 1.5
    endloop
  endfacet
  facet normal -0.994068 0.108758 0
    outer loop
      vertex -111.466 -57.8792 -1.5
      vertex -110.425 -48.3643 1.5
      vertex -110.425 -48.3643 -1.5
    endloop
  endfacet
  facet normal -0.994068 0.108758 0
    outer loop
      vertex -110.425 -48.3643 1.5
      vertex -111.466 -57.8792 -1.5
      vertex -111.466 -57.8792 1.5
    endloop
  endfacet
  facet normal -0.79798 -0.602683 0
    outer loop
      vertex -100.936 -71.8214 -1.5
      vertex -111.466 -57.8792 1.5
      vertex -111.466 -57.8792 -1.5
    endloop
  endfacet
  facet normal -0.79798 -0.602683 0
    outer loop
      vertex -111.466 -57.8792 1.5
      vertex -100.936 -71.8214 -1.5
      vertex -100.936 -71.8214 1.5
    endloop
  endfacet
  facet normal -0.982878 -0.184259 0
    outer loop
      vertex -100.445 -74.4405 -1.5
      vertex -100.936 -71.8214 1.5
      vertex -100.936 -71.8214 -1.5
    endloop
  endfacet
  facet normal -0.982878 -0.184259 0
    outer loop
      vertex -100.936 -71.8214 1.5
      vertex -100.445 -74.4405 -1.5
      vertex -100.445 -74.4405 1.5
    endloop
  endfacet
  facet normal -0.966501 -0.256664 0
    outer loop
      vertex -99.834 -76.7413 -1.5
      vertex -100.445 -74.4405 1.5
      vertex -100.445 -74.4405 -1.5
    endloop
  endfacet
  facet normal -0.966501 -0.256664 0
    outer loop
      vertex -100.445 -74.4405 1.5
      vertex -99.834 -76.7413 -1.5
      vertex -99.834 -76.7413 1.5
    endloop
  endfacet
  facet normal -0.79779 -0.602935 0
    outer loop
      vertex -89.2401 -90.7589 -1.5
      vertex -99.834 -76.7413 1.5
      vertex -99.834 -76.7413 -1.5
    endloop
  endfacet
  facet normal -0.79779 -0.602935 0
    outer loop
      vertex -99.834 -76.7413 1.5
      vertex -89.2401 -90.7589 -1.5
      vertex -89.2401 -90.7589 1.5
    endloop
  endfacet
  facet normal -0.142748 -0.989759 0
    outer loop
      vertex -89.2401 -90.7589 -1.5
      vertex -82.1602 -91.78 1.5
      vertex -89.2401 -90.7589 1.5
    endloop
  endfacet
  facet normal -0.142748 -0.989759 -0
    outer loop
      vertex -82.1602 -91.78 1.5
      vertex -89.2401 -90.7589 -1.5
      vertex -82.1602 -91.78 -1.5
    endloop
  endfacet
endsolid OpenSCAD_Model
